<?xml version="1.0" standalone="no"?>
<!DOCTYPE svg PUBLIC "-//W3C//DTD SVG 20010904//EN"
 "http://www.w3.org/TR/2001/REC-SVG-20010904/DTD/svg10.dtd">
<svg version="1.0" xmlns="http://www.w3.org/2000/svg"
 width="132.000000pt" height="30.000000pt" viewBox="0 0 132.000000 30.000000"
 preserveAspectRatio="xMidYMid meet">

<g transform="translate(0.000000,30.000000) scale(0.100000,-0.100000)"
fill="#000000" stroke="none">
<path d="M765 178 c6 -18 4 -20 -11 -14 -21 8 -24 9 -41 7 -21 -2 -16 -59 6
-71 20 -10 70 -8 89 4 15 9 10 60 -8 80 -19 24 -43 20 -35 -6z"/>
<path d="M873 173 c-18 -7 -16 -50 2 -57 18 -6 45 2 45 15 0 14 -18 11 -23 -3
-3 -10 -7 -10 -17 -1 -20 18 -4 46 21 38 15 -5 19 -4 15 4 -7 11 -22 13 -43 4z"/>
<path d="M938 145 c3 -26 9 -35 23 -35 10 0 19 4 19 10 0 5 -7 7 -15 4 -8 -4
-15 -3 -15 1 0 3 7 13 15 21 21 22 19 34 -8 34 -20 0 -23 -4 -19 -35z m32 21
c0 -3 -4 -8 -10 -11 -5 -3 -10 -1 -10 4 0 6 5 11 10 11 6 0 10 -2 10 -4z"/>
<path d="M1000 165 c-15 -18 -5 -45 21 -54 9 -3 8 2 -4 14 -20 20 -18 39 6 43
10 2 17 -6 20 -23 4 -24 4 -24 3 2 -1 32 -26 42 -46 18z"/>
<path d="M1070 146 c0 -28 4 -36 18 -35 10 0 12 3 5 6 -19 7 -16 53 2 53 15 0
19 -11 15 -40 -1 -12 1 -13 11 -2 18 17 0 46 -30 50 -18 3 -21 -1 -21 -32z"/>
<path d="M1157 173 c-16 -26 -26 -63 -17 -63 6 0 10 7 10 15 0 8 5 15 10 15 6
0 10 -7 10 -15 0 -8 5 -15 10 -15 13 0 13 1 -4 40 -7 18 -16 28 -19 23z"/>
<path d="M1198 173 c6 -2 12 -18 12 -34 0 -16 4 -29 8 -29 5 0 6 14 4 32 -4
26 -2 30 12 25 9 -4 16 -2 16 3 0 6 -15 10 -32 9 -18 0 -27 -3 -20 -6z"/>
<path d="M1260 156 c-6 -16 -13 -33 -16 -37 -3 -5 0 -9 5 -9 6 0 11 7 11 15 0
20 10 19 27 -2 13 -16 13 -16 7 7 -13 51 -22 57 -34 26z"/>
<path d="M233 135 c0 -22 2 -30 4 -17 2 12 2 30 0 40 -3 9 -5 -1 -4 -23z"/>
<path d="M22 130 c0 -19 2 -27 5 -17 2 9 2 25 0 35 -3 9 -5 1 -5 -18z"/>
<path d="M57 139 c4 -12 0 -25 -8 -30 -11 -7 -10 -9 4 -9 9 0 17 5 17 12 0 9
3 9 12 0 7 -7 19 -12 28 -12 12 0 12 2 2 9 -11 6 -9 9 7 14 12 3 22 -1 26 -11
3 -8 8 -13 10 -10 10 10 -8 39 -21 34 -7 -3 -16 -1 -20 5 -4 6 -11 6 -20 -2
-11 -9 -15 -8 -20 5 -9 24 -23 20 -17 -5z"/>
<path d="M426 147 c-12 -9 -38 -12 -71 -10 l-52 3 6 -32 c5 -32 6 -32 9 -5 2
15 8 27 14 27 5 0 8 -6 5 -14 -4 -9 4 -13 26 -14 23 -1 27 2 17 8 -13 8 -13
10 1 10 8 0 20 -5 27 -12 9 -9 12 -8 12 5 0 9 5 17 11 17 6 0 9 -7 5 -15 -3
-8 -1 -15 4 -15 6 0 10 14 10 30 0 34 0 34 -24 17z"/>
<path d="M492 130 c0 -19 2 -27 5 -17 2 9 9 17 15 17 5 0 7 -7 4 -16 -3 -8 -2
-12 4 -9 15 9 12 35 -4 35 -8 0 -17 6 -19 13 -3 6 -5 -4 -5 -23z"/>
<path d="M263 143 c-15 -5 -18 -43 -3 -43 5 0 7 6 4 14 -3 8 -1 17 5 21 7 4
11 -3 11 -16 0 -18 3 -20 12 -11 10 9 9 15 -2 26 -8 7 -21 12 -27 9z"/>
<path d="M160 130 c0 -12 24 -30 40 -30 13 0 13 1 0 10 -13 8 -12 10 3 10 9 0
17 4 17 9 0 5 -13 8 -30 7 -16 0 -30 -3 -30 -6z"/>
<path d="M544 108 c1 -15 2 -28 3 -28 1 0 9 13 17 28 13 25 13 28 -3 28 -13 0
-18 -8 -17 -28z"/>
</g>
</svg>
